<?xml version="1.0" encoding="UTF-8"?>
<!DOCTYPE svg PUBLIC "-//W3C//DTD SVG 1.1//EN" "http://www.w3.org/Graphics/SVG/1.1/DTD/svg11.dtd">
<!-- Creator: CorelDRAW 2019 (64-Bit) -->
<svg xmlns="http://www.w3.org/2000/svg" xml:space="preserve" width="12mm" height="12mm" version="1.1" style="shape-rendering:geometricPrecision; text-rendering:geometricPrecision; image-rendering:optimizeQuality; fill-rule:evenodd; clip-rule:evenodd"
viewBox="0 0 1200 1200"
 xmlns:xlink="http://www.w3.org/1999/xlink"
 xmlns:xodm="http://www.corel.com/coreldraw/odm/2003">
 <defs>
  <style type="text/css">
   <![CDATA[
    .fil1 {fill:url(#id0)}
    .fil0 {fill:url(#id1)}
    .fil2 {fill:url(#id2)}
   ]]>
  </style>
  <linearGradient id="id0" gradientUnits="userSpaceOnUse" x1="511.52" y1="831.42" x2="340.87" y2="404.21">
   <stop offset="0" style="stop-opacity:1; stop-color:#FD5E0F"/>
   <stop offset="1" style="stop-opacity:1; stop-color:#FAC417"/>
  </linearGradient>
  <linearGradient id="id1" gradientUnits="userSpaceOnUse" x1="888.61" y1="608.26" x2="673.82" y2="875.57">
   <stop offset="0" style="stop-opacity:1; stop-color:#FE1903"/>
   <stop offset="1" style="stop-opacity:1; stop-color:#FAC417"/>
  </linearGradient>
  <linearGradient id="id2" gradientUnits="userSpaceOnUse" xlink:href="#id0" x1="864.74" y1="177.46" x2="714.38" y2="457.91">
  </linearGradient>
 </defs>
 <g id="Layer_x0020_1">
  <metadata id="CorelCorpID_0Corel-Layer"/>
  <path class="fil0" d="M990.04 469.84l-416.47 545.35 0 -97.85 342.49 -447.5 73.98 0zm-114.55 0l-301.92 396.18 0 -97.85 227.93 -298.33 73.98 0 0.01 0z"/>
  <path class="fil1" d="M311.04 306.35l59.67 0 0 652.75 -59.67 0 0 -652.75zm173.03 -118.14l59.67 0 0 860.39 -59.67 0 0 -860.39zm-88.31 58.47l58.48 0 0 757.77 -58.48 0 0 -757.77z"/>
  <path class="fil2" d="M574.77 440l0 -59.67 430.79 0 0 59.67 -430.79 0zm0 -184.97l0 -59.66 257.75 0 0 59.66 -257.75 0zm0 93.09l0 -59.67 342.48 0 0 59.67 -342.48 0z"/>
 </g>
</svg>
