<svg xmlns="http://www.w3.org/2000/svg" width="100" height="100" viewBox="0 0 48 48"><path fill="#00933e" d="M18.376 15.078c-.067-.875-.027-1.751 0-2.626.072-2.274.312-4.526.917-6.727.146-.53.293-1.061.558-1.548.055-.011.111-.025.167-.032.644-.08 1.285-.173 1.933-.225a40.117 40.117 0 0 1 1.991-.119c.482-.014.964-.002 1.446-.001.28.001.562-.009.841.006.606.032 1.212.077 1.818.116.342.668.557 1.382.744 2.104.471 1.815.692 3.667.798 5.536.067 1.193.091 2.387.058 3.58a64.448 64.448 0 0 1-.352 5.27c-.047-.018-2.072-1.348-3.08-1.902a48.71 48.71 0 0 0-3.495-1.734 49.197 49.197 0 0 0-3.086-1.265c-.415-.154-.819-.347-1.258-.433z"/><path fill="#2ac54b" d="M18.376 15.078c.439.086.843.278 1.258.433 1.043.387 2.072.809 3.086 1.265a49.133 49.133 0 0 1 3.495 1.734 38.846 38.846 0 0 1 2.948 1.782c.04.027.106.073.135.087l-.058.523a.913.913 0 0 0-.257.104 22.35 22.35 0 0 0-3.447 2.278 21.917 21.917 0 0 0-2.346 2.194c-.493.534-.948 1.099-1.425 1.646-.535-.664-1.068-1.33-1.636-1.966-.31-.347-.601-.712-.956-1.017a84.35 84.35 0 0 1-.521-4.186 58.704 58.704 0 0 1-.245-3.458c-.016-.472-.043-.945-.031-1.419z"/><path fill="#00933e" d="M34.052 18.965c.103-.805.217-1.607.282-2.417a23.29 23.29 0 0 0-.044-4.282c-.162-1.54-.459-3.05-.954-4.52a15.63 15.63 0 0 0-1.505-3.229c-.022-.035-.034-.076-.051-.115.754.101 1.494.272 2.241.411.376.07.741.2 1.125.231.473.477.844 1.032 1.202 1.595a12.49 12.49 0 0 1 1.849 4.921c.17 1.15.172 2.306.087 3.463a24.612 24.612 0 0 1-.42 2.985c-.011.056-.031.11-.047.165-1.278.16-2.528.448-3.765.792z"/><path fill="#607d8b" d="M24.003 43.764c1.13 0 2.259.003 3.389-.003.16-.001.207.019.164.199a365.521 365.521 0 0 0-.881 3.863c-.031.141-.089.177-.229.177a800.335 800.335 0 0 0-4.9 0c-.129 0-.187-.034-.216-.163-.288-1.281-.575-2.563-.88-3.84-.055-.23.024-.236.207-.235 1.115.006 2.231.002 3.346.002z"/><path fill="#00933e" d="M15.717 5.269c-.237.537-.514 1.056-.731 1.603-.596 1.509-.975 3.073-1.189 4.679a29.39 29.39 0 0 0-.178 1.8c-.034.137-.092.198-.252.137-.207-.078-.424-.129-.64-.182-1.007-.247-2.014-.491-3.021-.737.022-.61.124-1.209.248-1.806.234-1.131.644-2.198 1.177-3.22.03-.057.068-.109.102-.164.033-.011.07-.016.099-.034a20.491 20.491 0 0 1 2.534-1.348c.606-.268 1.211-.544 1.851-.728z"/><path fill="#2196f3" d="M28.047 3.922c-.606-.039-1.212-.084-1.818-.116-.28-.015-.561-.006-.841-.006-.482-.001-.964-.013-1.446.001a39.01 39.01 0 0 0-1.991.119c-.648.052-1.289.145-1.933.225-.056.007-.111.021-.167.032a8.304 8.304 0 0 1 1.586-2.568c.519-.577 1.131-1.028 1.81-1.408.547-.336 1.08-.201 1.595.046 1.104.608 1.943 1.476 2.604 2.533.23.366.434.745.601 1.142z"/><path fill="#2ac54b" d="M9.707 12.57c1.007.245 2.014.489 3.021.737.215.053.433.103.64.182.16.06.218 0 .252-.137a22.13 22.13 0 0 0-.017 2.155c.056 1.249.192 2.491.4 3.724.016.097.044.195.02.295-.469-.316-.937-.634-1.407-.948a32.799 32.799 0 0 0-2.414-1.455c-.075-.041-.155-.074-.233-.111-.249-1.471-.36-2.95-.262-4.442z"/><path fill="#00933e" d="m40.834 17.891-1.402.083c.303-1.508.535-3.028.538-4.569a13.14 13.14 0 0 0-1.304-5.786c-.321-.667-.712-1.292-1.105-1.917.076.018.151.034.227.053.301.074.585.208.896.243l.011.009.04.035c.505.575.908 1.22 1.283 1.882.635 1.12 1.093 2.307 1.321 3.579.173.965.152 1.933.058 2.902a28.553 28.553 0 0 1-.508 3.278c-.016.069-.037.138-.055.208z"/><path fill="#2196f3" d="M35.145 5.046c-.384-.032-.748-.161-1.125-.231-.747-.139-1.487-.311-2.241-.411-.4-.587-.809-1.168-1.286-1.697C29.457 1.557 28.357.634 26.935 0c1.635.351 3.062.972 4.481 1.847a15.73 15.73 0 0 1 3.667 3.112c.023.027.041.058.062.087z"/><path fill="#90caf9" d="M15.717 5.269c-.64.184-1.245.46-1.851.729a20.42 20.42 0 0 0-2.534 1.348c-.029.018-.066.023-.099.034a14.488 14.488 0 0 1 3.769-4.414c.038-.03.068-.078.127-.07l1.427.986-.839 1.387zm-8.898 5.644c.051-.415.198-.805.341-1.193.565-1.526 1.416-2.883 2.461-4.124a14.782 14.782 0 0 1 3.077-2.783c.405-.271.824-.519 1.287-.685-.482.365-.957.737-1.402 1.146C10.839 4.88 9.534 6.779 8.75 9.025l-.062.183c-.613.529-1.224 1.059-1.783 1.646-.024.025-.057.04-.086.059z"/><path fill="#2ac54b" d="m8.24 16.121-1.343-.536c-.046-.018-.094-.032-.141-.048-.096-.398-.113-.806-.152-1.21-.075-.786-.114-1.573-.002-2.36l1.475.272c-.095 1.214-.026 2.421.145 3.625.012.084.013.171.018.257z"/><path fill="#00933e" d="m8.077 12.238-1.475-.272c.054-.355.073-.717.217-1.053.029-.019.063-.034.086-.059.559-.587 1.17-1.118 1.783-1.646-.225.764-.427 1.533-.525 2.326-.03.235-.058.47-.086.704z"/><path fill="#2196f3" d="M38.663 5.937c-1.045-1.283-2.226-2.418-3.634-3.299-.328-.205-.658-.419-1.042-.516a15.01 15.01 0 0 1 3.573 3.579c.076.018.151.034.227.053.301.074.585.208.896.243-.006-.021-.007-.045-.02-.06z"/><path fill="#ff6f00" d="M27.834 36.981c.193.346.346.711.487 1.08a41 41 0 0 1-2.66 2.916c-.009-.009-.083.077-.028-.026.491-.81.971-1.626 1.411-2.465l.79-1.505z"/><path fill="#2196f3" d="M20.31.18c-.629.191-1.258.384-1.843.694-.06.022-.122.039-.179.065-.887.407-1.729.893-2.524 1.457-.219.155-.439.285-.678.499.476.329.996.658 1.471.987.396-.5.773-1.016 1.224-1.47.257-.259.516-.517.774-.775.074 0 .111-.062.158-.103.338-.292.697-.554 1.068-.801.41-.274.847-.5 1.285-.729-.258.047-.51.101-.756.176z"/><path fill="#ff6f00" d="m28.647 38.814.131.309c-.551.605-1.796 1.892-1.81 1.879.536-.68 1.142-1.508 1.679-2.188z"/><path fill="#9a2150" d="m25.557 41.09-.01.003.012-.001z"/><path fill="#2ac54b" d="m14.053 19.571-.033-.047c.049-.011.033.023.033.047zM38.734 6.04l-.04-.035.04.035z"/><path fill="#ff6f00" d="m26.201 33.781.007-.014-.187-.305c-.483-.847-1.038-1.653-1.542-2.514-1.429-2.442-3.783-5.153-4.351-5.789-.31-.347-.601-.712-.956-1.017.178 1.153.362 2.306.59 3.45.123.617.389 1.847.389 1.847l.871 3.765.021.105c.008.031.017.061.024.092l.031.135.097.352c.29 1.164.589 2.327.917 3.481.26.914.531 1.826.799 2.738l.004.013c.101.344.202.688.301 1.033.041.14.101.194.254.188.36-.013.72-.011 1.08-.001.134.004.186-.045.222-.168.265-.902.544-1.801.805-2.704.374-1.297.736-2.598 1.061-3.908-.137-.262-.291-.518-.437-.779z"/><path fill="#9a2150" d="M16.087 27.235c-.856-2.507-1.565-5.054-2.034-7.664a1.275 1.275 0 0 1-.032-.046c-.468-.316-.936-.633-1.405-.947a32.799 32.799 0 0 0-2.414-1.455c-.075-.041-.155-.074-.233-.11.014.099.026.199.044.298.391 2.19 1.019 4.315 1.788 6.4.92 2.494 2.032 4.901 3.251 7.261.321.622.658 1.234 1.003 1.84.356-.808.767-1.616 1.235-2.331a73.407 73.407 0 0 1-1.203-3.246zm-2.067-7.711.001.001.001.001zm1.571 14.057c-1.656-2.533-3.19-5.135-4.443-7.895-.94-2.07-1.722-4.195-2.278-6.402a35.874 35.874 0 0 1-.629-3.163l-1.343-.536c-.046-.018-.094-.032-.141-.048.004.072.003.144.013.215.25 1.717.654 3.397 1.195 5.045 1.17 3.563 2.883 6.865 4.853 10.04a47.766 47.766 0 0 0 2.556 3.681c.095-.262.196-.53.305-.805l-.088-.132z"/><path fill="#ff6f00" d="M21.166 39.749c.371.402.748.799 1.13 1.207.05-.117-1.189-2.174-1.707-3.168-.59-1.133-2.274-4.808-2.296-4.86-.35-.81-.681-1.627-1.004-2.447-.468.715-.879 1.522-1.235 2.331a35.31 35.31 0 0 0 2.318 3.599 40.465 40.465 0 0 0 2.794 3.338zm-1.061.305c.317.318.653.617.945.891.005.049-3.708-4.718-5.371-7.233-.109.275-.21.544-.305.805a64.015 64.015 0 0 0 3.787 4.531c.31.339.619.68.944 1.006z"/><path fill="#bed70f" d="m26.641 34.561-4.875-7.435s4.157-5.575 7.475-6.223c0 0-.594 6.829-2.6 13.658zm5.928-9.345c-.951 3.113-2.13 6.139-3.478 9.099-.407.894-.837 1.777-1.257 2.666.193.346.346.711.487 1.08.63-.711 1.197-1.47 1.745-2.244 1.435-2.024 2.585-4.211 3.684-6.427.37-.745.715-1.503 1.055-2.263.293-.653.57-1.311.838-1.973l-2.631-1.558c-.146.541-.279 1.084-.443 1.62zm8.265-7.325-.328.019c.117-.004.228-.008.326-.01a.03.03 0 0 1 .002-.009zm-4.393 8.674c-1.783 3.677-3.964 7.11-6.393 10.389-.462.624-.934 1.24-1.401 1.86l.131.309c.05-.051.103-.1.151-.153a76.777 76.777 0 0 0 2.704-3.162c2.29-2.831 4.241-5.88 5.907-9.114.055-.107.101-.218.155-.325l-.914-.541c-.113.246-.222.493-.34.737z"/><path fill="#4caf50" d="M37.815 18.175c-1.277.157-2.526.446-3.764.79l-.045.252c-.252 1.479-.602 2.935-.994 4.38l2.631 1.558a44.386 44.386 0 0 0 1.73-5.074c.171-.63.338-1.261.442-1.906zm3.017-.275c-.098.002-.209.006-.326.01l-1.074.063a31.507 31.507 0 0 1-.73 2.855 39.415 39.415 0 0 1-1.92 5l.914.541c.818-1.617 1.552-3.27 2.149-4.981.398-1.142.738-2.303.987-3.488z"/></svg>